<svg data-v-fde0c5aa="" xmlns="http://www.w3.org/2000/svg" viewBox="0 0 300 300" class="iconLeft">
<!----><defs data-v-fde0c5aa=""><!----></defs>
<rect data-v-fde0c5aa="" fill="transparent" x="0" y="0" width="300px" height="300px" class="logo-background-square"></rect>

<defs data-v-fde0c5aa="">
    <linearGradient data-v-fde0c5aa="" gradientTransform="rotate(25)" id="ec4ba9cf-8871-4b47-bff0-a3c85a192ea5" x1="0%" y1="0%" x2="100%" y2="0%">
        <stop data-v-fde0c5aa="" offset="0%" stop-color="#E80000" stop-opacity="1"></stop>
        <stop data-v-fde0c5aa="" offset="100%" stop-color="#7A0000" stop-opacity="1"></stop>
    </linearGradient>
</defs>

<g data-v-fde0c5aa="" id="d6c09ccc-3d82-4a4f-becc-1fd9d03070dd" fill="url(#ec4ba9cf-8871-4b47-bff0-a3c85a192ea5)" transform="matrix(2.2577253978872656,0,0,2.2577253978872656,83.71678993582672,129.96268655546683)">
    <path d="M4.37 3.78C2.55 3.78 1.15 4.83 1.15 6.34C1.15 7.95 2.21 8.58 3.79 8.96L4.77 9.20C6.12 9.52 7.03 10.04 7.03 11.20C7.03 12.40 6.06 13.30 4.41 13.30C2.62 13.30 1.46 12.38 1.46 10.30L1.46 9.97L0.70 9.97L0.70 10.35C0.70 12.67 2.04 13.97 4.42 13.97C6.36 13.97 7.78 12.89 7.78 11.20C7.78 9.63 6.69 8.93 5.11 8.55L4.13 8.32C2.76 7.98 1.90 7.57 1.90 6.34C1.90 5.14 3.05 4.45 4.34 4.45C5.77 4.45 7.06 5.17 7.06 6.71L7.06 7.31L7.81 7.31L7.81 6.66C7.81 4.79 6.30 3.78 4.37 3.78ZM9.74 6.83L9.74 13.78L10.44 13.78L10.44 9.48C10.44 8.08 11.33 7.34 12.43 7.34C13.55 7.34 14.20 8.02 14.20 9.02L14.20 13.78L14.90 13.78L14.90 9.48C14.90 8.08 15.78 7.34 16.88 7.34C18.00 7.34 18.65 8.02 18.65 9.02L18.65 13.78L19.35 13.78L19.35 8.93C19.35 7.62 18.42 6.69 17.01 6.69C16.03 6.69 15.26 7.10 14.83 7.99L14.63 7.99C14.36 7.24 13.68 6.69 12.63 6.69C11.62 6.69 10.98 7.10 10.61 7.77L10.42 7.77L10.42 6.83ZM21.25 8.82L21.87 9.10C22.37 8.04 23.13 7.28 24.51 7.28C25.93 7.28 26.77 8.04 26.77 9.23L26.77 9.81L23.56 10.11C22.26 10.23 21.20 10.81 21.20 11.94C21.20 13.20 22.23 13.97 23.77 13.97C25.41 13.97 26.22 13.19 26.60 12.45L26.77 12.45L26.77 13.78L27.47 13.78L27.47 9.28C27.47 7.67 26.39 6.64 24.54 6.64C22.79 6.64 21.73 7.73 21.25 8.82ZM21.90 11.97C21.90 11.27 22.50 10.81 23.70 10.70L26.77 10.42L26.77 10.53C26.77 12.33 25.51 13.36 23.80 13.36C22.67 13.36 21.90 12.88 21.90 11.97ZM30.35 6.83L29.68 6.83L29.68 13.78L30.38 13.78L30.38 9.31C30.38 8.04 31.04 7.45 32.10 7.45L33.24 7.45L33.24 6.80L32.23 6.80C31.29 6.80 30.80 7.07 30.52 7.69L30.35 7.69ZM33.77 6.83L33.77 7.45L36.09 7.45L36.09 12.85C36.09 13.44 36.43 13.78 36.99 13.78L38.84 13.78L38.84 13.16L37.18 13.16C36.93 13.16 36.79 13.02 36.79 12.74L36.79 7.45L39.23 7.45L39.23 6.83L36.79 6.83L36.79 4.40L36.09 4.40L36.09 6.83ZM40.68 9.83C40.68 12.45 42.06 13.97 44.44 13.97C46.58 13.97 47.91 12.67 47.91 10.51L47.91 9.31L43.90 9.31L43.90 9.98L47.15 9.98L47.15 10.51C47.15 12.28 46.31 13.30 44.44 13.30C42.53 13.30 41.44 12.03 41.44 9.84L41.44 7.91C41.44 5.73 42.53 4.45 44.46 4.45C46.21 4.45 47.15 5.52 47.15 7.28L47.15 7.41L47.91 7.41L47.91 7.28C47.91 5.12 46.73 3.78 44.45 3.78C42.13 3.78 40.68 5.31 40.68 7.94ZM50.62 6.83L49.95 6.83L49.95 13.78L50.65 13.78L50.65 9.31C50.65 8.04 51.31 7.45 52.37 7.45L53.51 7.45L53.51 6.80L52.50 6.80C51.56 6.80 51.07 7.07 50.79 7.69L50.62 7.69ZM54.68 8.82L55.30 9.10C55.80 8.04 56.56 7.28 57.95 7.28C59.36 7.28 60.20 8.04 60.20 9.23L60.20 9.81L56.99 10.11C55.69 10.23 54.63 10.81 54.63 11.94C54.63 13.20 55.66 13.97 57.20 13.97C58.84 13.97 59.65 13.19 60.03 12.45L60.20 12.45L60.20 13.78L60.90 13.78L60.90 9.28C60.90 7.67 59.82 6.64 57.97 6.64C56.22 6.64 55.16 7.73 54.68 8.82ZM55.33 11.97C55.33 11.27 55.93 10.81 57.13 10.70L60.20 10.42L60.20 10.53C60.20 12.33 58.94 13.36 57.23 13.36C56.10 13.36 55.33 12.88 55.33 11.97ZM69.50 3.98L68.80 3.98L68.80 8.18L68.63 8.18C68.24 7.42 67.47 6.64 65.94 6.64C64.08 6.64 62.66 8.09 62.66 10.30C62.66 12.52 64.08 13.97 65.94 13.97C67.47 13.97 68.24 13.19 68.63 12.43L68.82 12.43L68.82 13.78L69.50 13.78ZM66.07 7.28C67.66 7.28 68.80 8.48 68.80 10.30C68.80 12.12 67.66 13.33 66.07 13.33C64.47 13.33 63.39 12.15 63.39 10.30C63.39 8.46 64.47 7.28 66.07 7.28ZM71.34 10.25C71.34 12.35 72.72 13.97 74.83 13.97C76.64 13.97 77.41 12.98 77.87 12.03L77.20 11.76C76.80 12.64 76.15 13.33 74.83 13.33C73.25 13.33 72.17 12.24 72.07 10.46L78.08 10.46L78.08 10.01C78.08 7.90 76.66 6.64 74.79 6.64C72.84 6.64 71.34 8.20 71.34 10.25ZM72.07 9.84C72.24 8.26 73.36 7.28 74.79 7.28C76.23 7.28 77.29 8.18 77.35 9.84Z">
    </path>
</g>

<defs data-v-fde0c5aa="">
    <linearGradient data-v-fde0c5aa="" gradientTransform="rotate(25)" id="b7cb7377-8d50-42b4-b4e6-19a538e8c8eb" x1="0%" y1="0%" x2="100%" y2="0%">
        <stop data-v-fde0c5aa="" offset="0%" stop-color="#C0DBFF" stop-opacity="1"></stop>
        <stop data-v-fde0c5aa="" offset="100%" stop-color="#0A2A5B" stop-opacity="1"></stop>
    </linearGradient>
</defs>

<g data-v-fde0c5aa="" id="1d0068a6-067a-495e-b52b-91eab7a632ea" stroke="none" fill="url(#b7cb7377-8d50-42b4-b4e6-19a538e8c8eb)" transform="matrix(0.2212136827906412,0,0,0.2212136827906412,40,132.74533274233)">
    <path d="M146 63l-94 93-52-52V42l52 52 94-94z"></path>
</g><!---->
</svg>